<?xml version="1.0" encoding="utf-8"?>
<!-- Generator: Adobe Illustrator 27.5.0, SVG Export Plug-In . SVG Version: 6.00 Build 0)  -->
<svg version="1.1" id="Layer_1" xmlns="http://www.w3.org/2000/svg" xmlns:xlink="http://www.w3.org/1999/xlink" x="0px" y="0px"
	 viewBox="0 0 4000 4000" style="enable-background:new 0 0 4000 4000;" xml:space="preserve">
<g>
	<g>
		<rect style="fill:#FFE98B;" width="4000" height="4000"/>
	</g>
	<g>
		<g style="opacity:0.2;">
			<ellipse style="fill:#000072;" cx="2050.699" cy="3324.602" rx="1087.209" ry="135.165"/>
		</g>
		<g>
			<path style="fill:#FF8928;" d="M2534.088,3306.4l25.131,50.204l-243.523-40.128c-98.828,23.374-185.821,20.094-185.821,20.094
				c14.469-130.578,163.325-153.367,163.325-153.367s-4.276-106.326-79.144-225.656l149.969-60.514
				c8.494,43.408,15.699,81.604,21.734,114.351c17.398,94.843,24.663,144.403,24.663,144.403
				c56.004-3.983,99.471,8.085,132.98,27.299c83.011,47.51,104.979,138.721,104.979,138.721L2534.088,3306.4z"/>
		</g>
		<g>
			<path style="fill:#FF8928;" d="M2534.093,3306.417c0,0-64.021-123.021-192.064-76.574"/>
		</g>
		<g style="opacity:0.2;">
			<path style="fill:#000072;" d="M2534.088,3306.4l25.131,50.204l-243.523-40.128c-98.828,23.374-185.821,20.094-185.821,20.094
				c14.469-130.578,163.325-153.367,163.325-153.367s-4.276-106.326-79.144-225.656l149.969-60.514
				c8.494,43.408,15.699,81.604,21.734,114.351c-10.476,6.051-21.98,12.612-32.742,18.424
				c-22.198,11.988-33.597,37.532-27.149,61.922c8.823,33.376,14.569,67.575,17.126,102.018
				c-68.892-4.51-139.19,27.065-181.662,81.546c62.566-6.151,125.892-12.302,188.106-3.222c21.675,3.164,44.053,8.142,65.083,2.226
				c21.09-5.858,39.777-27.533,33.333-48.505c19.098,31.282,73.403,24.135,89.864-8.553c5.39-10.72,7.03-22.495,5.682-34.153
				c83.011,47.51,104.979,138.721,104.979,138.721L2534.088,3306.4z"/>
		</g>
		<g>
			<path style="fill:#FF8928;" d="M1545.524,3221.047c0,0,107.965,25.131,123.021,115.522c0,0-79.085,20.035-185.763-20.094
				l-243.523,40.128l25.073-50.204l-130.52,17.574c0,0,39.777-91.739,138.194-127.357c35.793-12.946,79.436-18.511,131.691-9.431
				c0,0,44.58-52.782,92.149-146.22c16.812-32.981,33.977-71.06,49.677-113.648l149.968,60.515
				C1584.421,3088.008,1545.524,3221.047,1545.524,3221.047z"/>
		</g>
		<g style="opacity:0.2;">
			<path style="fill:#000072;" d="M1545.524,3221.047c0,0,107.965,25.131,123.021,115.522c0,0-79.085,20.035-185.763-20.094
				l-243.523,40.128l25.073-50.204l-130.52,17.574c0,0,39.777-91.739,138.194-127.357c-3.339,3.809-6.561,7.792-9.608,11.834
				c-6.269,8.26-12.243,17.809-11.599,28.119c0.878,14.411,14.88,25.19,29.174,27.416c14.235,2.227,28.588-2.05,42.413-6.268
				c30.521,1.699,61.042,3.456,91.563,5.155c63.796,3.574,127.883,7.264,190.215,21.265
				c-17.868-43.936-75.278-66.666-118.335-46.865c-5.858-36.086,21.851-66.255,35.852-96.893
				c15.524-34.036,11.599-63.913-15.875-90.392c-3.34-3.221-6.678-6.209-9.959-9.022c16.812-32.981,33.977-71.06,49.677-113.648
				l149.968,60.515C1584.421,3088.008,1545.524,3221.047,1545.524,3221.047z"/>
		</g>
		<g>
			<path style="fill:#000072;" d="M2559.198,3374.203c-0.947,0-1.904-0.073-2.861-0.234l-240.073-39.6
				c-98.525,22.788-183.418,19.883-187.051,19.741c-4.873-0.186-9.458-2.393-12.642-6.089c-3.188-3.696-4.692-8.555-4.155-13.408
				c12.72-115.034,120.215-154.214,161.812-165.137c-4.102-32.197-19.487-114.028-75.054-202.573
				c-2.764-4.404-3.433-9.81-1.831-14.761c1.606-4.946,5.317-8.931,10.142-10.879l149.937-60.503
				c4.858-1.968,10.337-1.646,14.946,0.845c4.609,2.495,7.861,6.919,8.872,12.061c25.146,127.7,38.96,211.064,44.16,243.843
				c2.026-0.039,4.033-0.059,6.03-0.059c188.325,0,233.579,178.359,234.028,180.234c1.357,5.635-0.151,11.582-4.038,15.889
				c-3.882,4.307-9.634,6.445-15.391,5.645l-81.367-10.952l10.254,20.503c2.954,5.908,2.349,12.974-1.572,18.291
				C2569.999,3371.595,2564.726,3374.203,2559.198,3374.203z M2315.668,3298.885c0.957,0,1.914,0.078,2.861,0.234l209.546,34.565
				l-9.702-19.409c-2.915-5.825-2.368-12.783,1.421-18.081c3.784-5.298,10.225-8.062,16.641-7.197l86.064,11.587
				c-19.36-45.952-75.215-136.943-210.806-127.275c-9.243,0.645-17.3-5.879-18.633-14.976
				c-0.127-0.854-12.407-83.833-42.222-237.012l-111.084,44.824c66.182,114.355,70.845,212.051,71.016,216.362
				c0.361,8.94-6.055,16.724-14.902,18.076c-5.181,0.811-120.835,20.073-145.088,118.452c30.889-0.503,93.34-3.701,160.84-19.678
				C2312.948,3299.042,2314.311,3298.885,2315.668,3298.885z"/>
		</g>
		<g>
			<path style="fill:#000072;" d="M2518.503,3314.53c-0.527-1.228-1.663-3.394-2.622-5.137c-1.003-1.843-2.08-3.696-3.191-5.532
				c-2.202-3.689-4.619-7.3-7.112-10.859c-5.037-7.087-10.559-13.867-16.55-20.178c-11.987-12.603-25.835-23.42-41.333-31.123
				c-7.759-3.813-15.891-6.855-24.297-9.128c-8.433-2.158-17.129-3.352-25.945-3.918c-17.654-0.657-35.706,1.997-53.201,7.319
				l-0.046,0.015c-3.45,1.05-7.097-0.896-8.147-4.346c-0.984-3.232,0.693-6.653,3.745-7.932
				c18.003-7.461,37.429-12.419,57.546-13.628c10.056-0.361,20.227,0.029,30.315,1.589c10.059,1.667,19.995,4.304,29.595,7.913
				c19.192,7.29,36.746,18.433,52.148,31.743c7.71,6.672,14.895,13.909,21.587,21.606c3.325,3.87,6.565,7.82,9.631,11.96
				c1.545,2.063,3.054,4.16,4.534,6.328c1.533,2.266,2.82,4.15,4.521,7.083l0.249,0.425c4.885,8.416,2.024,19.199-6.392,24.084
				c-8.416,4.888-19.197,2.026-24.084-6.389C2519.114,3315.834,2518.77,3315.14,2518.503,3314.53z"/>
		</g>
		<g>
			<path style="fill:#000072;" d="M1239.233,3374.203c-5.527,0-10.801-2.607-14.146-7.144c-3.921-5.317-4.526-12.383-1.572-18.291
				l10.254-20.503l-97.637,13.145c-6.25,0.864-12.534-1.753-16.357-6.812c-3.828-5.059-4.634-11.782-2.109-17.598
				c0.781-1.802,79.243-176.909,278.628-148.789c19.727-25.571,83.75-114.272,132.754-246.992c1.646-4.458,5.024-8.057,9.37-9.98
				c4.336-1.924,9.277-2.002,13.691-0.229l149.937,60.503c5.615,2.271,9.673,7.271,10.728,13.232
				c1.055,5.967-1.035,12.056-5.532,16.113c-83.384,75.244-125.078,170.972-139.18,208.755
				c34.297,12.29,104.927,46.646,117.827,124.043c1.504,9.014-4.15,17.676-13.008,19.927c-3.403,0.864-83.506,20.425-191.846-19.028
				l-238.941,39.414C1241.137,3374.129,1240.18,3374.203,1239.233,3374.203z M1264.345,3288.841c5.625,0,10.967,2.7,14.292,7.354
				c3.789,5.298,4.336,12.256,1.421,18.081l-9.702,19.409l209.551-34.565c3.057-0.508,6.167-0.2,9.053,0.894
				c71.753,27.007,130.127,25.469,157.827,22.319c-22.803-63.916-104.38-83.96-105.268-84.17c-4.693-1.108-8.735-4.102-11.162-8.267
				c-2.422-4.17-3.047-9.15-1.694-13.774c1.548-5.283,36.851-123.125,134.976-222.202l-108.032-43.594
				c-59.756,153.916-135.2,244.272-138.496,248.174c-4.023,4.766-10.254,7.041-16.426,5.981
				c-130.654-22.646-203.34,53.296-233.677,97.305l94.99-12.788C1262.778,3288.89,1263.564,3288.841,1264.345,3288.841z"/>
		</g>
		<g>
			<path style="fill:#000072;" d="M1248.75,3298.304c1.702-2.932,2.991-4.817,4.524-7.083c1.477-2.168,2.988-4.265,4.531-6.328
				c3.066-4.141,6.309-8.091,9.634-11.96c6.692-7.698,13.877-14.934,21.584-21.606c15.403-13.311,32.957-24.453,52.151-31.743
				c9.597-3.608,19.536-6.245,29.592-7.913c10.09-1.56,20.259-1.951,30.315-1.589c20.117,1.208,39.543,6.167,57.546,13.628
				c3.33,1.382,4.912,5.2,3.533,8.533c-1.296,3.123-4.734,4.707-7.905,3.755l-0.076-0.024c-17.495-5.322-35.544-7.976-53.201-7.319
				c-8.816,0.566-17.51,1.76-25.945,3.918c-8.403,2.273-16.538,5.315-24.297,9.128c-15.496,7.703-29.346,18.521-41.331,31.123
				c-5.991,6.311-11.516,13.091-16.55,20.178c-2.493,3.56-4.912,7.17-7.114,10.859c-1.111,1.836-2.185,3.689-3.191,5.532
				c-0.959,1.743-2.095,3.909-2.622,5.137c-3.838,8.94-14.199,13.076-23.142,9.238c-8.94-3.84-13.076-14.202-9.236-23.145
				c0.269-0.625,0.569-1.228,0.898-1.807L1248.75,3298.304z"/>
		</g>
		<g>
			<path style="fill:#FFFFFF;" d="M2168.128,2882.094c0,0-34.211,29.467-90.567,63.268c-35.441,21.265-79.671,44.288-129.7,62.74
				c-101.288,37.492-226.183,56.356-349.614,4.57c-135.734-56.941-196.6-154.246-223.196-239.716
				c-28.587-91.563-17.809-169.535-17.809-169.535l145.576-3.281l345.573-7.791l63.678-1.465l52.84,60.105L2168.128,2882.094z"/>
		</g>
		<g>
			<path style="fill:#000072;" d="M1758.788,3061.781c-58.814,0-115.015-10.947-167.334-32.9
				c-151.675-63.652-212.085-176.65-236.05-260.234c-25.83-90.088-16.011-164.487-15.581-167.612
				c1.182-8.545,8.389-14.971,17.017-15.166l554.849-12.554c5.093-0.254,10.166,2.061,13.594,5.962l256.05,291.235
				c3.101,3.525,4.658,8.145,4.336,12.827c-0.327,4.678-2.51,9.038-6.069,12.1c-3.027,2.603-75.396,64.39-183.857,112.285
				C1914.233,3043.714,1834.35,3061.781,1758.788,3061.781z M1373.422,2620.648c-1.377,25.054-1.46,78.965,16.138,139.585
				c31.983,110.171,104.487,189.648,215.498,236.235c233.706,98.086,477.681-70.601,537.705-116.592l-238.472-271.24
				L1373.422,2620.648z"/>
		</g>
		<g>
			<path style="fill:#FFFFFF;" d="M3162.375,2423.927c-4.219,8.436-8.553,16.462-13.064,23.96
				c-114.821,193.67-303.277,89.044-303.277,89.044c-60.926,176.213-244.344,217.044-289.335,224.484
				c-6.443,1.055-10.076,1.464-10.076,1.464s-80.959,195.839-276.798,222.2c-33.684,4.511-64.908,3.163-93.496-2.168
				c-37.492-7.088-70.532-21.031-98.769-37.55c-75.453-44.288-116.519-107.205-116.519-107.205s-148.68,28.646-320.031,10.662
				c-77.094-8.143-158.756-25.659-233.565-59.578c-10.837-4.921-21.675-10.369-32.396-16.286
				c-125.305-69.243-240.478-204.801-311.302-353.481c-57.762-121.146-86.174-251.022-66.784-360.862
				c44.64-253.19,170.356-469.59,173.167-474.453l-0.234,0.117l-0.41,0.235c-1.289,0.761-4.16,2.343-8.436,4.218l-0.293,0.117
				c-16.52,7.264-52.49,18.453-88.458-0.937c-48.975-26.362-41.476-128.06,37.609-203.395c7.968-7.616,16.462-14.588,25.307-21.031
				c78.382-57.176,181.838-69.36,181.838-69.36c-67.779-41.417-97.89-143.115-97.89-143.115l6.209-1.523l118.043-28.587
				l-124.252-188.282c248.562-45.225,338.894,60.222,338.894,60.222c7.557-218.392,244.813-372.813,305.093-316.341
				c60.222,56.531,0,128.06,0,128.06c120.502-75.337,425.536-86.584,451.898,0c26.362,86.642-52.723,120.502-52.723,120.502
				c293.729,60.28,364.729,261.039,305.035,327.647c-40.479,45.225-107.673,33.333-161.919,3.749
				c-105.447-57.41-143.115-26.362-143.115-26.362c116.753,180.783-41.417,734.379,233.507,802.158
				c274.864,67.778,267.366-297.478,267.366-297.478c39.309,11.483,71.119,26.245,96.718,43.409
				c162.857,109.02,72.056,313.821,35.149,383.064c-7.557,14.236-12.888,22.73-13.24,23.55l250.436-186.406
				c1.934,8.553,3.574,16.93,4.921,25.131c47.802,283.243-208.316,340.125-208.316,340.125l9.139,2.343L3162.375,2423.927z"/>
		</g>
		<g>
			<path style="fill:#000072;" d="M2228.886,3005.438c-154.019,0.015-250.049-113.438-275.752-148.032
				c-59.248,9.873-332.578,47.686-552.94-52.158c-119.531-54.18-236.377-169.922-320.591-317.539
				c-85.532-149.937-121.963-307.451-99.941-432.153c33.911-192.356,114.936-365.259,153.833-440.549
				c-20.151,3.049-44.688,1.768-69.531-11.628c-21.196-11.406-35-33.464-38.853-62.104c-7.261-53.987,21.27-120.513,72.681-169.482
				c55.522-52.896,132.397-77.41,178.286-87.966c-50.229-49.973-72.666-124.119-73.765-127.827
				c-1.367-4.609-0.781-9.575,1.611-13.743c2.393-4.17,6.392-7.175,11.06-8.318l99.99-24.233l-110.478-167.407
				c-3.252-4.927-3.814-11.157-1.494-16.584c2.319-5.427,7.207-9.329,13.018-10.386c181.987-33.12,282.988,12.1,327.495,42.542
				c21.03-148.989,140.903-262.07,226.172-297.295c45.732-18.884,83.188-17.786,105.483,3.101
				c34.502,32.388,36.846,70.43,27.896,101.931c108.145-42.014,277.764-53.567,367.866-19.839
				c33.394,12.505,53.896,30.562,60.933,53.672c16.47,54.143-2.93,93.347-27.241,117.419
				c219.175,57.253,277.598,184.89,290.63,224.378c16.118,48.818,10.581,94.875-14.805,123.201
				c-40.469,45.222-109.043,48.01-183.418,7.449c-57.08-31.074-91.392-34.084-109.019-32.034
				c37.876,76.34,41.362,195.132,45.034,320.3c6.011,204.951,12.227,416.88,166.997,455.034
				c63.662,15.703,115.913,7.71,155.269-23.745c92.759-74.126,90.352-254.502,90.313-256.313c-0.107-5.674,2.529-11.055,7.08-14.443
				c4.546-3.389,10.454-4.375,15.859-2.644c99.81,32.002,164.063,85.31,190.977,158.447c31.694,86.135,5.073,180.237-25.171,247.283
				l187.402-139.478c4.785-3.557,11.05-4.443,16.621-2.373c5.586,2.078,9.736,6.843,11.03,12.661
				c36.855,165.864-24.092,262.256-81.709,313.911c-27.124,24.316-55.781,41.069-79.688,52.28l178.745,46.143
				c5.137,1.328,9.399,4.902,11.602,9.731c2.197,4.834,2.095,10.396-0.278,15.142c-37.144,74.307-87.793,121.831-150.542,141.25
				c-72.222,22.363-140.249,1.04-171.787-12.139c-70.527,171.885-251.636,210.874-297.114,218.062
				c-19.429,40.913-105.674,199.199-286.484,223.54C2257.284,3004.505,2242.831,3005.433,2228.886,3005.438z M1961.044,2820.584
				c5.864,0,11.441,2.939,14.722,7.974c1.06,1.616,109.575,163.608,291.714,139.106c183.159-24.658,262.134-209.653,262.91-211.519
				c2.471-5.933,7.983-10.063,14.375-10.742c2.168-0.234,219.585-25.996,284.658-214.214c1.699-4.907,5.479-8.813,10.332-10.674
				c4.844-1.841,10.269-1.47,14.81,1.05c0.762,0.425,80.498,43.491,162.91,17.793c47.661-14.849,87.563-49.8,118.833-104.009
				l-211.836-54.688c-7.866-2.031-13.315-9.189-13.179-17.314c0.142-8.125,5.83-15.098,13.765-16.86
				c10-2.256,237.554-56.802,195.254-317.295l-227.998,169.693c-6.455,4.81-15.352,4.609-21.597-0.474
				c-6.24-5.083-8.228-13.76-4.824-21.055c0.186-0.391,0.977-1.855,2.446-4.224c23.989-38.667,99.082-173.452,58.213-284.509
				c-20.986-57.041-70.151-100.461-146.294-129.294c-2.681,56.077-18.091,191.633-102.92,259.502
				c-48.35,38.691-110.84,48.94-185.713,30.483c-180.703-44.551-187.617-280.215-193.716-488.135
				c-3.848-131.233-7.485-255.188-50.347-321.553c-4.839-7.493-3.296-17.422,3.589-23.096c4.79-3.945,50.073-36.829,162.695,24.487
				c22.134,12.073,97.656,47.739,140.42-0.034c16.89-18.845,19.731-52.014,7.612-88.733
				c-25.298-76.631-118.203-172.036-303.086-209.976c-7.524-1.545-13.174-7.8-13.95-15.444c-0.776-7.644,3.506-14.905,10.566-17.927
				c6.523-2.871,63.789-30.33,42.832-99.233c-4.59-15.063-24.087-25.166-39.634-30.989c-95.664-35.82-297.754-14.478-386.138,40.776
				c-7.339,4.587-16.924,3.149-22.588-3.381c-5.669-6.533-5.742-16.221-0.171-22.839c4.995-6.016,47.793-60.388,1.416-103.928
				c-11.133-10.425-37.192-8.987-68.017,3.75c-83.027,34.294-202.29,150.164-207.485,300.386
				c-0.249,7.239-4.917,13.584-11.753,15.979c-6.856,2.4-14.448,0.349-19.155-5.154c-0.757-0.852-81.797-89.639-295.942-58.691
				l109.312,165.637c3.154,4.778,3.779,10.791,1.685,16.116c-2.095,5.327-6.655,9.297-12.217,10.645l-105.322,25.51
				c11.465,29.377,38.975,88.132,83.989,115.64c6.392,3.906,9.604,11.438,8.003,18.757c-1.606,7.319-7.676,12.817-15.117,13.691
				c-1.211,0.144-123.311,15.396-197.07,85.664c-52.886,50.374-66.499,106.55-62.085,139.348
				c1.631,12.153,6.548,28.24,20.684,35.845c28.828,15.544,58.144,6.88,73.052,0.325c0.181-0.078,0.366-0.156,0.547-0.229
				c3.511-1.538,5.742-2.808,6.333-3.159c0.044-0.024,0.498-0.288,0.542-0.313c0.308-0.176,0.615-0.342,0.928-0.501
				c6.943-3.476,15.454-2.034,20.776,3.618c5.317,5.652,6.416,14.065,2.534,20.784c-5.239,9.053-127.676,222.568-171.069,468.706
				c-20.62,116.763,14.321,265.698,95.859,408.628c79.438,139.253,193.296,252.5,304.566,302.944
				c232.949,105.542,539.946,48.252,543.017,47.666C1958.827,2820.687,1959.941,2820.584,1961.044,2820.584z"/>
		</g>
		<g>
			<path style="fill:#FFFFFF;" d="M1897.021,2043.565c0,0-308.809,207.128-161.936,557.362
				c146.872,350.234,583.724,229.724,670.341,94.149c0,0,259.851-109.213,233.489-354c0,0-252.319,94.149-380.362-60.255"/>
		</g>
		<g>
			<path style="fill:#000072;" d="M1902.781,2052.152c-21.582,18.682-42.476,39.788-61.814,61.287
				c-19.177,21.843-37.236,44.556-53.276,68.562c-32.263,47.805-55.986,101.333-66.619,157.549
				c-5.386,28.069-7.622,56.675-6.98,85.249l0.991,21.431l2.417,21.345c0.566,7.144,2.249,14.158,3.413,21.228
				c1.294,7.056,2.366,14.15,4.314,21.091l5.2,20.933c2.046,6.902,4.338,13.745,6.487,20.623l3.269,10.305l3.889,10.117
				l7.834,20.215c11.794,26.116,24.272,52.063,41.03,75.037l5.942,8.845l6.641,8.289c4.514,5.444,8.647,11.238,13.45,16.418
				l14.585,15.366c2.329,2.668,5.088,4.878,7.703,7.241l7.908,7.024c21.389,18.311,44.915,34.226,70.481,46.306
				c25.571,12.021,52.676,20.867,80.544,26.626c7.017,1.216,13.945,2.891,21.033,3.757l21.255,2.639l21.423,1.343
				c7.141,0.449,14.331,0.173,21.494,0.308c57.312-0.698,115.093-11.028,168.899-31.572c26.875-10.227,52.837-22.847,76.626-38.259
				c23.669-15.369,45.254-34.038,60.029-55.625l0.305-0.447c1.941-2.837,4.565-4.902,7.515-6.143l0.022-0.01
				c7.537-3.286,16.021-7.61,23.906-11.853c8.022-4.282,15.872-8.967,23.669-13.706c15.513-9.639,30.522-20.11,44.839-31.394
				c28.633-22.539,54.597-48.389,75.718-77.534c5.427-7.19,10.166-14.807,15.027-22.344c4.441-7.771,9.028-15.471,12.815-23.56
				c7.849-16.021,14.473-32.651,18.948-49.871l1.812-6.418c0.544-2.156,0.928-4.348,1.401-6.521l2.69-13.064
				c1.074-8.831,2.776-17.585,3.064-26.514c1.672-17.759,0.571-35.691-0.845-53.535l23.083,14.255l-0.017,0.005
				c-8.892,3.445-16.97,6.055-25.53,8.604c-8.455,2.488-16.943,4.807-25.481,6.909c-17.109,4.07-34.414,7.266-51.863,9.692
				c-34.895,4.78-70.522,5.789-105.959,1.992c-17.703-2.056-35.31-5.378-52.61-10.054c-17.217-5.027-34.111-11.394-50.1-19.624
				c-16.033-8.169-30.928-18.433-44.749-29.744l-9.927-9.011c-3.271-3.027-6.187-6.433-9.277-9.622
				c-6.353-6.228-11.411-13.613-16.931-20.459c-2.734-3.391-2.202-8.357,1.189-11.091c3.186-2.568,7.761-2.253,10.571,0.605
				l0.396,0.405c23.091,23.652,50.093,42.493,79.988,54.763c15.015,5.93,30.376,10.935,46.211,14.309
				c15.837,3.364,31.953,5.493,48.193,6.609c32.517,2.192,65.427,0.022,98.04-4.509c16.316-2.297,32.546-5.432,48.616-9.192
				c8.059-1.782,16.067-3.772,24.016-5.906c7.815-2.183,16.055-4.534,23.203-6.868l0.012-0.005l0.564-0.205
				c8.748-3.164,18.406,1.36,21.572,10.107c0.51,1.411,0.823,2.927,0.947,4.353c1.628,19.802,2.783,39.773,0.952,59.724
				c-0.366,9.998-2.202,19.873-3.464,29.795c-0.918,4.919-2.009,9.81-3.015,14.712c-0.535,2.446-0.981,4.912-1.592,7.339
				l-2.021,7.231c-5.068,19.382-12.49,38.079-21.265,55.977c-4.255,9.041-9.321,17.61-14.285,26.24
				c-5.364,8.362-10.647,16.79-16.606,24.709c-23.293,32.117-51.487,60.09-82.229,84.297c-15.378,12.122-31.428,23.315-48.032,33.63
				c-8.352,5.081-16.75,10.085-25.405,14.709c-8.77,4.692-17.119,9.019-26.912,13.296l-0.037,0.015l7.82-6.587
				c-18.677,28.174-43.281,49.373-69.358,66.887c-26.267,17.346-54.29,31.211-83.184,42.505
				c-28.899,11.304-58.772,19.866-89.189,25.759c-30.405,5.925-61.367,9.243-92.473,9.536c-7.781-0.117-15.562,0.161-23.34-0.303
				l-23.342-1.433l-23.259-2.842c-7.751-0.95-15.405-2.739-23.113-4.082c-30.681-6.279-60.793-16.025-89.368-29.426
				c-28.572-13.455-55.071-31.24-79.06-51.738l-8.867-7.859c-2.93-2.646-6.003-5.149-8.628-8.101l-16.318-17.136
				c-5.354-5.784-9.988-12.161-15.005-18.225l-7.371-9.221l-6.584-9.753c-18.35-25.593-31.851-53.926-44.404-82.307l-8.254-21.65
				l-4.082-10.84l-3.462-11.086c-2.273-7.402-4.673-14.763-6.824-22.202l-5.493-22.625c-2.029-7.49-3.181-15.198-4.539-22.854
				c-1.228-7.681-2.957-15.271-3.562-23.057l-2.478-23.235l-0.957-23.376c-0.532-31.194,2.107-62.488,8.179-93.115
				c12.009-61.379,38.169-119.307,73.076-170.283c17.646-25.41,37.61-49.099,59.648-70.574c22.29-21.37,45.725-40.806,72.971-56.709
				c4.937-2.881,11.274-1.216,14.155,3.721c2.554,4.373,1.536,9.846-2.161,13.042L1902.781,2052.152z"/>
		</g>
		<g>
			<path style="fill:#000072;" d="M2414.321,2710.233c-4.253,2.441-7.083,3.699-10.522,5.313c-3.289,1.392-6.567,2.847-9.856,4.053
				c-6.56,2.546-13.196,4.526-19.841,6.465c-6.677,1.587-13.342,3.445-20.071,4.556l-10.081,1.855l-10.112,1.345
				c-26.99,3.467-54.104,3.232-80.769,0.64c-6.641-0.801-13.374-1.145-19.941-2.336l-19.751-3.306
				c-6.572-1.145-12.998-2.839-19.504-4.241c-6.487-1.472-13.003-2.844-19.331-4.81l-19.109-5.5
				c-3.159-0.833-6.387-1.987-9.629-3.223l-9.692-3.584c-6.565-2.19-12.632-5.32-18.85-8.157l-9.265-4.373l-8.889-4.971
				c-23.718-13.203-45.715-29.026-65.53-47.026c-19.907-17.903-38.108-37.554-54.211-58.811
				c-16.038-21.306-29.636-44.443-40.571-68.77c-10.74-24.38-18.838-50.186-21.67-76.782c-0.5-4.692,2.896-8.899,7.588-9.399
				c4.146-0.442,7.915,2.161,9.08,6.011l0.037,0.127c7.202,23.75,17.319,46.355,29.514,67.756
				c12.158,21.418,26.182,41.768,41.86,60.759c15.796,18.884,32.981,36.57,51.558,52.537c18.496,16.089,38.896,29.705,60.042,41.221
				l7.942,4.316l8.186,3.699c5.476,2.395,10.847,5.127,16.509,6.875l8.386,2.969c2.759,1.025,5.571,2.002,8.628,2.759l17.881,5.012
				c5.928,1.831,11.97,3.057,17.988,4.395c6.03,1.265,12.019,2.842,18.076,3.862l18.188,2.966c6.052,1.113,12.156,1.445,18.23,2.217
				c24.316,2.458,48.757,2.805,72.708,0.32l8.97-1.003l8.857-1.462c5.952-0.845,11.672-2.368,17.495-3.601
				c5.681-1.577,11.372-3.12,16.853-4.99c2.764-0.894,5.383-1.968,8.042-2.961c2.412-0.996,5.442-2.349,6.787-3.032l1.111-0.564
				c8.645-4.387,19.209-0.938,23.599,7.708C2425.481,2695.426,2422.351,2705.604,2414.321,2710.233z"/>
		</g>
		<g>
			<path style="fill:#000072;" d="M1044.844,1930.612c-4.036,21.277-7.195,43.677-9.602,65.674
				c-2.385,22.104-4.026,44.268-4.602,66.357c-0.566,22.08-0.146,44.116,1.929,65.747c2.139,21.572,5.784,42.917,12.495,62.466
				c6.624,19.487,16.643,37.183,30.635,48.296c7.017,5.483,14.893,9.441,23.638,11.567c9.216,2.378,16.809,2.544,24.556,0.417
				c15.269-4.104,29.214-18.577,39.597-35.94c5.266-8.689,9.802-18.145,13.743-27.913c1.963-4.89,3.782-9.866,5.435-14.89
				c1.614-4.907,3.218-10.347,4.292-14.771c2.288-9.451,11.804-15.259,21.255-12.974c7.419,1.797,12.593,8.091,13.369,15.269
				c0.852,8.074,2.266,17.17,3.831,25.747c1.594,8.691,3.438,17.346,5.552,25.916c4.229,17.134,9.451,33.972,15.996,50.044
				c6.526,16.064,14.404,31.394,23.992,44.985c9.602,13.53,20.991,25.293,34.143,33.279c13.088,8.11,27.883,12.251,43.413,12.446
				c15.405,0.325,29.033-3.757,39.446-12.8c21.223-18.005,29.658-55.151,29.548-86.934l33.684-7.649
				c1.172,3.184,3.074,7.419,4.849,11.13c1.836,3.831,3.801,7.637,5.872,11.387c4.138,7.512,8.711,14.81,13.672,21.802
				c9.937,13.965,21.501,26.758,34.866,37.124c13.337,10.359,28.547,18.225,45.032,22.129c16.462,3.979,34.036,3.804,51.245,0.315
				l0.039-0.01c3.386-0.686,6.687,1.504,7.373,4.89c0.642,3.159-1.252,6.257-4.258,7.212c-18.186,5.701-37.991,8.101-57.617,5.466
				c-19.629-2.527-38.601-9.951-55.342-20.393c-16.804-10.449-31.519-23.733-44.397-38.359c-6.438-7.332-12.441-15.017-18.005-23.03
				c-2.788-4.006-5.469-8.093-8.042-12.285c-2.617-4.319-4.941-8.21-7.527-13.376l-0.002-0.007l33.684-7.651
				c0.134,5.862-0.066,10.444-0.381,15.576c-0.327,4.998-0.83,9.968-1.501,14.932c-1.362,9.924-3.394,19.839-6.399,29.68
				c-3,9.834-6.965,19.622-12.407,28.994c-5.4,9.358-12.41,18.308-21.143,25.771c-8.682,7.498-19.128,13.267-30.017,16.689
				c-10.894,3.491-22.097,4.724-32.776,4.543c-21.221-0.168-43.101-6.274-61.26-17.615c-18.328-11.182-32.852-26.58-44.475-42.944
				c-11.606-16.467-20.557-34.092-27.864-52.053c-7.319-17.979-12.991-36.348-17.571-54.89c-2.288-9.275-4.275-18.601-5.996-27.988
				c-1.714-9.504-3.171-18.572-4.25-28.777l34.624,2.295c-1.599,6.584-3.252,12.007-5.156,17.864
				c-1.885,5.74-3.958,11.409-6.213,17.031c-4.539,11.233-9.805,22.29-16.279,32.988c-6.497,10.667-14.116,21.079-23.914,30.33
				c-9.714,9.192-21.987,17.278-36.287,21.265c-14.124,4.155-29.966,3.237-42.593-0.178c-13.298-3.228-26.123-9.59-36.917-18.123
				c-10.725-8.611-19.453-19.067-26.165-30.117c-6.848-11.04-11.833-22.646-15.869-34.299
				c-7.986-23.372-11.887-47.046-14.236-70.508c-2.251-23.484-2.671-46.838-2.08-70.049c0.608-23.21,2.319-46.274,4.795-69.221
				c2.539-23.04,5.676-45.552,10.085-68.796c1.807-9.536,11.003-15.801,20.54-13.992s15.801,11.006,13.992,20.54v0.002
				L1044.844,1930.612z"/>
		</g>
		<g>
			<path style="fill:#FF1B40;" d="M2586.811,1194.241c0.117,23.842-6.679,44.229-19.449,58.465
				c-40.479,45.225-107.673,33.333-161.919,3.749c-105.447-57.41-143.115-26.362-143.115-26.362
				c-124.193-150.086-297.653-214.467-303.042-216.459c11.599,6.21,22.555,12.77,32.924,19.742
				c146.922,97.245,178.849,257.934,140.185,403.862c-41.418,156.295-161.92,252.31-267.366,265.491
				c-105.447,13.181-144.99-52.723-144.99-52.723s-39.543,73.461-111.715,71.587c-72.232-1.874-112.36-88.517-112.36-88.517
				s-32.103,247.8-185.411,243.114c-192.148-5.858-140.361-292.088-140.361-292.088l-0.059,0.058l-0.234,0.117l-0.41,0.235
				l-8.436,4.218l-0.293,0.117c-16.52,7.264-52.49,18.453-88.458-0.937c-48.975-26.362-41.476-128.06,37.609-203.395
				c79.085-75.337,207.145-90.392,207.145-90.392c-67.779-41.417-97.89-143.115-97.89-143.115l6.209-1.523l118.043-28.587
				l-124.252-188.282c248.562-45.225,338.894,60.222,338.894,60.222c0.645-19.391,3.164-38.254,7.205-56.472
				c41.066-187.637,242.938-311.362,297.888-259.868c4.921,4.628,9.022,9.315,12.419,14.118c2.695,3.808,4.98,7.615,6.855,11.424
				c10.427,21.382,8.553,43.115,2.929,60.983c-6.151,19.391-16.579,34.27-20.621,39.484c-0.996,1.347-1.582,2.051-1.582,2.051
				c0.527-0.293,1.054-0.645,1.582-0.938c2.577-1.64,5.33-3.222,8.142-4.745c126.361-70.181,416.516-78.675,442.174,5.683
				c1.641,5.33,2.812,10.427,3.691,15.348c3.573,20.211,1.113,37.141-4.335,51.083c-14.763,38.137-52.08,54.071-52.08,54.071
				c1.934,0.41,3.75,0.761,5.624,1.171c0.059,0,0.175,0.059,0.234,0.059c217.456,46.456,310.658,170.472,318.098,257.173
				C2586.635,1187.094,2586.811,1190.726,2586.811,1194.241z"/>
		</g>
		<g style="opacity:0.6;">
			<path style="fill:#FFFFFF;" d="M1988.515,1111.07c83.666,79.266,135.321,191.405,141.187,306.508
				c18.573-56.306,12.198-117.714,0.463-175.831c-10.518-52.093-25.724-104.515-56.656-147.729
				c-42.745-59.719-112.367-96.313-184.287-111.181c-63.954-13.221-138.471-15.057-202.622-1.654
				c2.46,10.509,45.494,8.887,56.196,10.511c22.108,3.356,43.964,8.352,65.347,14.894c43.18,13.212,84.442,32.734,121.965,57.864
				C1950.829,1078.328,1970.41,1093.917,1988.515,1111.07z"/>
		</g>
		<g style="opacity:0.6;">
			<path style="fill:#FFFFFF;" d="M2586.811,1194.241c-2.988,0.586-6.034,0.703-9.139,0.468
				c-27.416-2.225-42.589-31.633-55.887-55.77c-49.149-89.395-138.427-151.667-234.385-186.348
				c-8.787-3.163-19.039-7.674-20.562-16.93c-0.644-3.807-0.176-6.912,1.113-9.432c0.059,0,0.175,0.059,0.234,0.059
				c217.456,46.456,310.658,170.472,318.098,257.173C2586.635,1187.094,2586.811,1190.726,2586.811,1194.241z"/>
		</g>
		<g style="opacity:0.6;">
			<path style="fill:#FFFFFF;" d="M2314.407,870.988c-7.675-22.788-26.303-43.057-48.155-54.363
				c-34.094-17.574-73.929-19.964-112.242-19.332c-198.616,3.274-255.298,52.314-276.036,37.082
				c-9.608-7.029-13.65-18.746-13.24-30.755c2.577-1.64,5.33-3.222,8.142-4.745c126.361-70.181,416.516-78.675,442.174,5.683
				c1.641,5.33,2.812,10.427,3.691,15.348C2322.315,840.116,2319.855,857.046,2314.407,870.988z"/>
		</g>
		<g style="opacity:0.6;">
			<path style="fill:#FFFFFF;" d="M1882.427,702.039c-18.922,4.394-34.329,8.435-38.43,9.724
				c-77.679,23.902-149.149,67.721-205.739,126.068c-14.236,14.645-27.534,30.228-39.719,46.689
				c-11.248,15.173-19.918,38.664-33.04,51.611c-0.059,0.059-0.176,0.176-0.234,0.234
				c41.066-187.637,242.938-311.362,297.888-259.868c4.921,4.628,9.022,9.315,12.419,14.118
				C1878.267,694.423,1880.552,698.231,1882.427,702.039z"/>
		</g>
		<g style="opacity:0.2;">
			<ellipse style="fill:#000072;" cx="1844.716" cy="1305.655" rx="92.057" ry="143.324"/>
		</g>
		<g style="opacity:0.2;">
			<path style="fill:#000072;" d="M2567.362,1252.706c-40.479,45.225-107.673,33.333-161.919,3.749
				c-105.447-57.41-143.115-26.362-143.115-26.362c-124.193-150.086-297.653-214.467-303.042-216.459
				c11.599,6.21,22.555,12.77,32.924,19.742c-102.343-42.999-214.761-61.862-325.538-54.129
				c-67.341-133.841,156.764-184.005,208.901-288.631c38.371,53.602-12.419,113.942-12.419,113.942
				c3.105-1.934,6.327-3.867,9.724-5.683c-12.009,21.089-23.725,43.409-14.704,64.732c12.185,28.998,51.787,31.166,83.186,28.647
				c58.23-4.687,116.519-9.315,174.807-14.002c45.811-3.631,92.149-7.439,135.675-22.26c23.96-8.202,47.217-20.152,66.9-36.086
				c13.24,75.336-56.415,105.154-56.415,105.154c1.992,0.41,3.925,0.82,5.858,1.23c-10.076,4.745-20.034,9.666-28.939,16.286
				c-15.348,11.482-27.65,29.759-25.014,48.74c4.57,32.689,44.815,43.819,76.273,53.778c42.999,13.649,82.366,38.605,113.004,71.586
				c27.298,29.408,49.736,66.373,86.935,81.311c31.4,12.595,68.248,5.389,95.84-14.528
				C2588.802,1211.933,2582.007,1236.361,2567.362,1252.706z"/>
		</g>
		<g>
			<path style="fill:#000072;" d="M1314.999,1893.832c-1.66,0.002-3.301-0.024-4.985-0.076
				c-48.911-1.492-87.832-19.685-115.679-54.077c-53.559-66.138-50.747-174.944-45.498-227.959
				c-22.212,6.145-53.296,8.687-84.873-8.342c-21.196-11.406-35-33.464-38.853-62.104c-7.261-53.987,21.27-120.513,72.681-169.482
				c55.522-52.896,132.397-77.41,178.286-87.966c-50.229-49.973-72.666-124.119-73.765-127.827
				c-1.367-4.609-0.781-9.575,1.611-13.743c2.393-4.17,6.392-7.175,11.06-8.318l99.99-24.233l-110.478-167.407
				c-3.252-4.927-3.814-11.157-1.494-16.584c2.319-5.427,7.207-9.329,13.018-10.386c181.987-33.12,282.988,12.1,327.495,42.542
				c21.03-148.989,140.903-262.07,226.172-297.295c45.732-18.884,83.188-17.786,105.483,3.101
				c34.502,32.388,36.846,70.43,27.896,101.931c108.145-42.014,277.764-53.567,367.866-19.839
				c33.394,12.505,53.896,30.562,60.933,53.672c16.47,54.143-2.93,93.347-27.241,117.419
				c219.175,57.256,277.598,184.893,290.63,224.378c16.113,48.811,10.581,94.866-14.795,123.193l0,0
				c-40.488,45.229-109.053,48.018-183.428,7.456c-85.972-46.802-120.259-29.983-123.813-27.949
				c-3.452,3.242-7.598,4.463-12.358,4.229c-4.917-0.251-8.931-3.071-12.07-6.865c-48.354-58.438-104.556-103.63-154.902-136.943
				c21.147,27.935,37.837,58.723,49.658,91.897c26.602,74.661,28.618,159.548,5.835,245.491
				c-45.786,172.786-178.364,265.452-282.173,278.428c-77.554,9.7-123.33-19.841-145.547-41.201
				c-19.019,24.463-57.329,61.821-113.789,60.193c-47.261-1.226-81.836-32.368-103.042-59.368
				C1487.133,1753.883,1437.465,1893.809,1314.999,1893.832z M1170.18,1566.568c2.832,0,5.679,0.681,8.286,2.08
				c6.709,3.596,10.366,11.082,9.019,18.574c-0.278,1.541-26.987,154.902,34.204,230.386c21.416,26.418,50.659,39.834,89.399,41.016
				c135.405,4.065,167.143-225.498,167.446-227.817c1.011-7.756,7.031-13.916,14.766-15.1c7.734-1.194,15.313,2.881,18.608,9.983
				c0.347,0.737,36.587,76.77,96.87,78.335c0.732,0.02,1.47,0.029,2.197,0.029c58.887,0,93.267-61.787,93.608-62.419
				c3.017-5.532,8.779-9.048,15.083-9.177c6.523-0.071,12.202,3.105,15.439,8.506c1.357,2.168,35.854,55.796,127.744,44.329
				c92.466-11.558,210.942-95.522,252.554-252.556c45.786-172.705-15.688-323.594-164.443-403.626
				c-8.13-4.372-11.489-14.292-7.695-22.705c3.799-8.411,13.447-12.461,22.119-9.253c7.3,2.7,176.406,66.404,301.699,211.353
				c22.026-7.175,67.876-10.437,146.763,32.515c22.134,12.073,97.656,47.739,140.42-0.034c0.005-0.002,0.005-0.005,0.01-0.007
				c16.88-18.838,19.722-52.007,7.603-88.726c-25.298-76.631-118.203-172.036-303.086-209.976c-7.524-1.545-13.174-7.8-13.95-15.444
				c-0.776-7.644,3.506-14.905,10.566-17.927c6.523-2.871,63.789-30.33,42.832-99.233c-4.59-15.063-24.087-25.166-39.634-30.989
				c-95.664-35.82-297.754-14.478-386.138,40.776c-7.339,4.587-16.924,3.149-22.588-3.381c-5.669-6.533-5.742-16.223-0.171-22.839
				c4.995-6.016,47.793-60.388,1.416-103.928c-11.133-10.425-37.192-8.987-68.017,3.75
				c-83.027,34.294-202.29,150.164-207.485,300.386c-0.249,7.239-4.917,13.584-11.753,15.979c-6.856,2.4-14.448,0.349-19.155-5.154
				c-0.747-0.852-81.802-89.644-295.938-58.691l109.307,165.637c3.154,4.778,3.784,10.791,1.685,16.116
				c-2.095,5.327-6.655,9.297-12.217,10.645l-105.322,25.51c11.465,29.375,38.975,88.132,83.989,115.637
				c6.392,3.909,9.604,11.44,8.003,18.76c-1.606,7.319-7.676,12.817-15.117,13.691c-1.211,0.144-123.311,15.396-197.07,85.664
				c-52.886,50.374-66.499,106.55-62.085,139.348c1.631,12.153,6.548,28.24,20.684,35.845c28.828,15.544,58.144,6.88,73.052,0.325
				c0.029-0.012,0.059-0.024,0.088-0.037l7.461-3.73c0.293-0.164,0.615-0.339,0.796-0.432
				C1164.56,1567.245,1167.363,1566.568,1170.18,1566.568z"/>
		</g>
		<g>
			<path style="fill:#000072;" d="M1952.915,1026.823c-4.771-2.261-10.425-4.746-15.884-6.873
				c-5.479-2.261-11.125-4.233-16.726-6.296c-11.309-3.901-22.771-7.466-34.373-10.591c-23.191-6.301-46.892-10.962-70.82-13.762
				l-8.97-1.142l-9.006-0.728c-6.006-0.425-12.017-1.033-18.037-1.316c-12.041-0.22-24.121-0.923-36.169-0.239
				c-24.175,0.261-48.147,3.616-72.009,7.573l-0.405,0.068c-4.521,0.75-8.794-2.307-9.543-6.829
				c-0.728-4.394,2.158-8.557,6.47-9.475c24.534-5.183,49.363-9.722,74.504-11.089c12.546-1.238,25.129-1.069,37.727-1.362
				c6.294,0.024,12.578,0.381,18.877,0.559l9.443,0.361l9.414,0.786c25.137,1.858,50.132,5.667,74.775,11.233
				c12.329,2.761,24.565,5.994,36.726,9.617c12.251,3.818,23.921,7.683,36.497,13.01c7.451,3.157,10.933,11.755,7.776,19.206
				c-3.157,7.451-11.755,10.933-19.207,7.776c-0.173-0.073-0.344-0.149-0.513-0.227L1952.915,1026.823z"/>
		</g>
		<g>
			<path style="fill:#000072;" d="M1479.165,1638.295c-1.973-7.905-3.376-14.985-4.722-22.471c-1.345-7.393-2.493-14.79-3.43-22.224
				c-1.887-14.858-3.181-29.792-3.442-44.836c-0.164-15.049,0.425-30.159,2.556-45.227c2.317-15.054,6.04-30.037,12.129-44.312
				c1.87-4.385,6.938-6.421,11.323-4.551c4.087,1.743,6.135,6.27,4.878,10.427l-0.117,0.378c-3.955,12.888-5.894,26.423-6.58,40.107
				c-0.51,13.74,0.378,27.605,1.953,41.401c1.67,13.806,4.309,27.554,7.485,41.147c1.58,6.797,3.357,13.562,5.305,20.244
				c1.89,6.599,4.06,13.533,6.226,19.478l0.056,0.156c3.325,9.136-1.387,19.236-10.522,22.561s-19.236-1.387-22.561-10.522
				C1479.492,1639.479,1479.312,1638.876,1479.165,1638.295z"/>
		</g>
		<g>
			<path style="fill:#000072;" d="M1152.847,1580.992c0.767-3.289,1.438-5.774,2.239-8.516c0.752-2.693,1.555-5.339,2.407-7.935
				c1.606-5.266,3.503-10.347,5.291-15.486c3.84-10.144,7.908-20.149,12.434-29.917c9.004-19.553,19.209-38.469,30.916-56.387
				c11.648-17.93,24.255-35.212,38.398-51.14c13.74-16.262,29.268-30.854,45.049-44.917c2.964-2.642,7.507-2.38,10.149,0.583
				c2.5,2.805,2.4,7.026-0.129,9.709l-0.244,0.256c-14.077,14.844-27.747,29.998-39.541,46.597
				c-12.192,16.262-22.761,33.655-32.327,51.455c-9.622,17.783-17.703,36.345-24.556,55.215c-3.452,9.431-6.433,18.997-9.177,28.572
				c-1.226,4.81-2.585,9.607-3.613,14.399c-0.574,2.402-1.084,4.788-1.533,7.151c-0.481,2.295-0.928,4.888-1.189,6.694l-0.027,0.181
				c-1.392,9.617-10.317,16.284-19.934,14.89c-9.617-1.392-16.284-10.317-14.89-19.934
				C1152.639,1581.976,1152.737,1581.464,1152.847,1580.992z"/>
		</g>
		<g>
			<path style="fill:#000072;" d="M2828.755,2533.729c4.717-16.086,9.316-32.393,13.713-48.645
				c4.38-16.27,8.647-32.593,12.195-48.894l0.02-0.083c0.84-3.855,4.644-6.299,8.499-5.459c3.364,0.732,5.652,3.728,5.623,7.039
				c-0.144,17.244-0.996,34.29-1.968,51.338c-0.994,17.058-2.163,34.001-3.521,51.108c-0.771,9.729-9.285,16.99-19.011,16.218
				c-9.729-0.771-16.99-9.282-16.218-19.011c0.095-1.201,0.308-2.366,0.627-3.484L2828.755,2533.729z"/>
		</g>
		<g>
			<path style="fill:#FF8928;" d="M1610.783,1216.326c-6.502,15.524-15.875,29.525-27.533,41.886
				c-61.98,65.963-186.875,84.533-266.194,35.911c-67.779-41.417-97.89-143.115-97.89-143.115l6.209-1.523l118.043-28.587
				l-124.252-188.282c22.554-4.1,43.82-6.971,63.795-8.729c200.407-18.219,275.099,68.951,275.099,68.951
				S1662.276,1093.305,1610.783,1216.326z"/>
		</g>
		<g style="opacity:0.2;">
			<path style="fill:#000072;" d="M1585.008,1254.053c-0.586,1.406-1.172,2.812-1.758,4.159
				c-61.98,65.963-186.875,84.533-266.194,35.911c-67.779-41.417-97.89-143.115-97.89-143.115l6.209-1.523l118.043-28.587
				l-124.252-188.282c22.554-4.1,43.82-6.971,63.795-8.729c14.821,3.808,29.056,8.202,41.827,12.361
				c27.299,8.962,53.778,20.679,78.734,34.914c67.485,38.547,124.075,95.839,161.802,163.794
				C1585.535,1171.335,1600.473,1215.389,1585.008,1254.053z"/>
		</g>
		<g style="opacity:0.6;">
			<path style="fill:#FFFFFF;" d="M1610.783,1216.326c-0.704,1.699-1.465,3.339-2.227,4.979
				c12.947-100.409-65.552-176.096-65.552-176.096s-79.32-92.559-293.786-67.018l-30.053-45.577
				c248.562-45.225,338.895,60.222,338.895,60.222S1662.277,1093.305,1610.783,1216.326z"/>
		</g>
		<g>
			<path style="fill:#000072;" d="M1422.641,1339.056c-42.056,0-82.505-10.173-114.771-29.951
				c-72.69-44.417-104.248-148.691-105.557-153.108c-1.367-4.609-0.781-9.575,1.611-13.743c2.393-4.17,6.392-7.175,11.06-8.318
				l99.99-24.233l-110.478-167.407c-3.252-4.927-3.814-11.157-1.494-16.584c2.319-5.427,7.207-9.329,13.018-10.386
				c247.866-45.11,345.503,55.093,354.78,65.386c9.375,9.26,110.293,113.145,56.196,242.4l0.005-0.007
				c-19.483,46.606-64.233,84.187-122.783,103.101C1477.543,1334.823,1449.755,1339.056,1422.641,1339.056z M1242.231,1163.487
				c11.465,29.375,38.975,88.132,83.989,115.637c44.59,27.332,108.648,32.549,167.192,13.635
				c48.77-15.757,85.64-46.086,101.157-83.21c0-0.002,0.005-0.005,0.005-0.007c46.104-110.159-44.839-200.293-48.735-204.075
				c-0.386-0.374-0.776-0.789-1.123-1.196c-0.757-0.852-81.797-89.639-295.942-58.691l109.312,165.637
				c3.154,4.778,3.779,10.791,1.685,16.116c-2.095,5.327-6.655,9.297-12.217,10.645L1242.231,1163.487z"/>
		</g>
		<g>
			<path style="fill:#000072;" d="M1436.791,1245.072c-54.541,0-132.715-16.479-218.809-86.497
				c-3.452-2.808-5.019-7.334-4.033-11.675c0.981-4.343,4.341-7.754,8.667-8.801l101.841-24.666l-115.073-174.365
				c-2.583-3.918-2.583-9.004,0.01-12.92c2.593-3.914,7.275-5.898,11.89-5.056c2.666,0.491,66.03,12.502,135.049,55.059
				c64.072,39.507,144.815,113.787,165.61,243.296c0.854,5.327-2.036,10.549-7.007,12.649
				C1512.392,1233.175,1483.115,1245.072,1436.791,1245.072z M1251.865,1155.125c118.481,86.453,216.113,67.17,245.254,58.389
				c-33.286-175.857-186.66-241.577-251.274-261.741l107.354,162.671c2.1,3.184,2.52,7.192,1.123,10.742
				c-1.396,3.552-4.438,6.199-8.144,7.097L1251.865,1155.125z"/>
		</g>
		<g>
			<path style="fill:#000072;" d="M1510.375,1221.306c0,0-129.407,54.716-285-71.821l118.043-28.587l-124.252-188.282
				C1219.165,932.615,1471.476,979.071,1510.375,1221.306z"/>
		</g>
		<g>
			<path style="fill:none;" d="M1244.59,1411.286c-3.749,9.373-8.611,18.922-14.352,27.65
				C1234.514,1429.505,1239.318,1420.249,1244.59,1411.286z"/>
		</g>
		<g>
			<path style="fill:none;" d="M1409.614,2166.168c3.808,3.983,6.385,8.552,7.791,13.357
				C1414.652,2175.131,1412.075,2170.679,1409.614,2166.168z"/>
		</g>
		<g style="opacity:0.2;">
			<path style="fill:#000072;" d="M2928.869,2363.646l9.139,2.343c-51.259,5.917-103.221,5.741-154.422-0.703
				c83.479-40.772,162.213-92.794,226.946-159.459c26.362-27.123,50.321-56.707,71.059-88.4
				c18.98-28.998,30.814-65.435,53.543-91.621c0.704-0.762,1.348-1.523,2.051-2.286
				C3184.987,2306.764,2928.869,2363.646,2928.869,2363.646z"/>
		</g>
		<g style="opacity:0.2;">
			<path style="fill:#000072;" d="M2895.067,2161.247c-6.034,4.921-12.36,9.55-18.922,13.885
				c-70.591,46.572-172.229,50.146-236.318-5.039c70.883-8.963,139.893-39.25,190.039-90.098
				c50.146-50.791,79.963-122.787,74.105-194.023c-3.573-44.17-21.264-75.98-44.053-107.79
				C3022.775,1887.203,2931.974,2092.004,2895.067,2161.247z"/>
		</g>
		<g>
			<path style="fill:none;" d="M1885.356,763.022c-6.151,19.391-16.579,34.27-20.621,39.484c0.527-8.963,3.456-18.043,8.435-25.424
				C1876.51,772.102,1880.669,767.416,1885.356,763.022z"/>
		</g>
		<g style="opacity:0.2;">
			<path style="fill:#000072;" d="M2899.458,2419.182c-30.11,42.53-72.406,76.039-120.092,96.835
				c-0.234,0.117-0.41,0.176-0.644,0.293c-29.467,12.712-62.683-6.971-67.31-38.781c-7.03-48.271-21.383-97.948-40.246-145.75
				c-70.415,115.581-189.16,200.701-321.261,230.167c-132.101,29.525-275.743,3.104-388.689-71.529
				c41.651,67.896,95.136,128.528,157.233,178.323c-40.304,0.644-80.198-5.624-118.394-17.75
				c-41.534-13.122-80.959-33.157-116.518-58.64c-82.483-59.051-150.028-215.698-94.258-385.408
				c36.262-63.151,83.772-119.916,139.776-166.43c-87.27,21.884-146.27-4.365-235.381-82.776
				c28.529,44.932,57.703,91.505,66.08,144.111c8.319,52.548-9.725,113.179-56.414,138.779
				c-13.357,7.323-28.061,11.189-43.058,12.244c-99.296-9.842-200.114-114.293-242.82-236.904
				c8.201,27.768,35.09,248.679-27.064,239.306c-75.63-11.482-125.014-307.084-125.014-307.084s183.243,115.464,314.641-134.913
				c63.444,62.917,167.603,25.073,184.708-61.804c142.939,152.781,298.942,58.172,384.003-69.419
				c85.119-127.649,97.011-388.571,1.054-508.254c-9.08,108.668-37.844,222.259-116.05,298.239
				c-78.206,75.98-217.161,96.542-294.314,19.507c-19.273,47.275-68.54,80.726-119.565,81.135
				c-51.024,0.469-74.34-63.385-94.433-110.309c-68.189,74.047-66.021,147.918-85.353,204.626
				c-19.743,57.937-70.298,96.425-125.365,69.653c-36.027-17.457-56.472-56.589-66.724-95.312
				c-17.692-66.782-11.131-139.541,17.399-202.399c-13.65,20.679-32.748,36.965-56.589,36.38
				c-41.3-0.997-63.21-55.477-48.213-93.965c2.578-6.62,5.917-12.479,9.783-17.868c-8.846,6.444-17.34,13.415-25.308,21.031
				c-79.085,75.335-86.584,177.033-37.609,203.395c35.969,19.39,71.938,8.201,88.458,0.937l0.292-0.117
				c4.276-1.874,7.147-3.456,8.436-4.218l0.41-0.235l0.235-0.117c-2.812,4.863-128.528,221.263-173.167,474.453
				c-19.39,109.84,9.022,239.716,66.784,360.862c70.063,121.908,126.009,182.716,222.551,292.263
				c128.352,145.693,258.813,185.938,348.97,199.88c119.272,18.453,218.45,64.029,111.246,132.629
				c171.234,0.234,295.603-77.621,331.045-98.886c28.236,16.52,61.276,30.462,98.768,37.55
				c261.742-7.908,302.223-129.055,370.294-220.032c3.867-1.64,7.616-3.397,11.248-5.214c-0.41,1.23-0.762,2.461-1.172,3.749
				c44.991-7.44,228.409-48.271,289.335-224.484c0,0,188.457,104.626,303.277-89.044
				C3091.606,2481.396,2982.878,2472.725,2899.458,2419.182z M1169.545,2196.103c-26.01,0-47.041-71.645-47.041-159.986
				c0-88.341,21.031-159.928,47.041-159.928s47.099,71.586,47.099,159.928C1216.644,2124.458,1195.555,2196.103,1169.545,2196.103z
				 M1732.865,2650.637c-3.105,2.285-7.44-0.176-10.428-2.636c-38.254-30.873-71.704-67.604-99.003-108.435
				c-12.009-18.044-31.341-42.589-36.204-63.971c-5.976-26.42,17.047-19.449,32.865-6.386c53.601,44.347,93.73,104.627,114,171.175
				C1735.208,2643.901,1735.912,2648.47,1732.865,2650.637z M1375.107,2656.613c-43.175-35.734-78.557-83.303-90.625-138.077
				c-6.034-27.357-3.867-60.749,19.039-76.917c29.467-20.738,72.992-0.235,91.387,26.479c14.294,20.621,12.713,46.631,17.926,70.415
				c8.32,37.961,22.613,74.984,41.007,109.196c13.006,24.37,40.129,80.784,66.608,92.559
				C1469.189,2717.479,1418.34,2692.348,1375.107,2656.613z M1615.174,2742.376c-52.958-32.63-97.187-81.722-116.811-140.772
				c-7.088-21.441-25.717-140.361,15.056-127.883c26.42,8.143,50.907,100.35,65.083,124.31
				c50.557,85.178,124.603,156.588,212.71,202.048C1729.467,2792.171,1668.132,2775.006,1615.174,2742.376z M2529.926,2802.189
				c-29.115,37.902-65.728,58.698-81.838,46.338c-16.11-12.361-5.507-53.134,23.608-91.095
				c29.115-37.902,65.788-58.699,81.839-46.338C2569.644,2723.455,2559.1,2764.227,2529.926,2802.189z"/>
		</g>
		<g>
			<g>
				<g>
					<g>
						<path style="fill:#000072;" d="M1828.594,1141.875c50.507-3.74,91.596,56.286,91.773,134.069
							c0.178,77.785-40.622,143.873-91.13,147.614c-50.506,3.74-91.597-56.285-91.774-134.07
							C1737.286,1211.704,1778.087,1145.614,1828.594,1141.875z"/>
					</g>
				</g>
			</g>
			<g>
				<g>
					<g>
						<path style="fill:#FFFFFF;" d="M1829.271,1174.478c15.322,7.646,19.88,34.275,10.18,59.476
							c-9.7,25.202-29.984,39.433-45.307,31.787c-15.322-7.645-19.88-34.274-10.179-59.475
							C1793.665,1181.064,1813.948,1166.831,1829.271,1174.478z"/>
					</g>
				</g>
			</g>
			<g>
				<g>
					<g>
						<path style="fill:#B199C5;" d="M1868.358,1343.019c7.027,6.219,6.674,20.803-0.788,32.573
							c-7.462,11.771-19.208,16.272-26.233,10.053c-7.027-6.218-6.674-20.802,0.789-32.571
							C1849.585,1341.303,1861.332,1336.802,1868.358,1343.019z"/>
					</g>
				</g>
			</g>
		</g>
	</g>
</g>
</svg>
